#!OML:ASF H:\Terrain\Patient Classification 1\Terrain2\Thursday\justin.ASF
:FULLY-SPECIFIED
:DEGREES
2997
root 5.13117 17.5315 20.5501 702.606 -460.397 20.7583
lowerback 6.44689 1.97433 3.96713
upperback 2.80299 2.77142 2.83021
thorax -0.668288 1.34402 0.501108
lowerneck -11.8977 -2.31023 -10.2855
upperneck 38.2187 -5.27962 6.94587
head 16.0448 -3.39287 3.81556
rclavicle -1.04362e-014 8.74653e-015
rhumerus -29.3027 -9.24874 -79.8415
rradius 25.6292
rwrist -6.76227
rhand -19.5191 13.434
rfingers 7.12502
rthumb 6.80404 -16.4367
lclavicle -1.04362e-014 8.74653e-015
lhumerus -36.4766 15.8104 81.4961
lradius 24.1666
lwrist -6.74221
lhand -12.7952 18.5322
lfingers 7.12502
lthumb 13.2906 48.0884
rfemur 19.7013 -1.23535 23.9042
rtibia 6.41808
rfoot -7.72212 -14.3559
rtoes -19.45
lfemur -28.626 2.04725 -11.5076
ltibia 25.2746
lfoot -3.13528 -5.07676
ltoes 14.1645
2998
root 4.99236 17.5409 20.5686 703.395 -460.129 19.8542
lowerback 6.48017 1.93178 3.609
upperback 2.77608 2.7005 2.83798
thorax -0.73405 1.30662 0.710932
lowerneck -11.9521 -2.29951 -10.3946
upperneck 38.3149 -5.21953 6.90185
head 16.1036 -3.3924 3.82877
rclavicle 2.5842e-015 -2.38542e-015
rhumerus -29.445 -9.40317 -79.4673
rradius 25.6249
rwrist -6.49864
rhand -19.5756 14.029
rfingers 7.12502
rthumb 6.74951 -15.8434
lclavicle 2.5842e-015 -2.38542e-015
lhumerus -36.5927 16.4019 81.3356
lradius 24.2073
lwrist -7.28222
lhand -12.7783 18.4442
lfingers 7.12502
lthumb 13.3069 47.9994
rfemur 18.0896 -1.34729 23.5365
rtibia 10.7055
rfoot -8.91257 -14.6218
rtoes -18.6096
lfemur -28.0017 2.6676 -12.1967
ltibia 24.6772
lfoot -1.24792 -6.39734
ltoes 8.57345
2999
root 4.84864 17.5649 20.5932 703.424 -459.974 19.6713
lowerback 6.49587 1.98996 3.52999
upperback 2.81284 2.77182 2.85688
thorax -0.708778 1.34181 0.769811
lowerneck -11.9734 -2.40848 -10.4351
upperneck 38.295 -5.32346 6.80622
head 16.1121 -3.44935 3.77523
rclavicle -2.88238e-015 -2.38542e-015
rhumerus -29.7269 -9.74647 -79.0035
rradius 25.8451
rwrist -6.27406
rhand -19.6774 13.995
rfingers 7.12502
rthumb 6.65125 -15.8805
lclavicle -2.88238e-015 -2.38542e-015
lhumerus -36.6324 15.1755 82.0717
lradius 24.7585
lwrist -6.19763
lhand -12.6503 18.7836
lfingers 7.12502
lthumb 13.4303 48.3307
rfemur 17.1083 -1.74745 23.185
rtibia 13.7704
rfoot -9.23538 -14.7078
rtoes -18.6994
lfemur -27.2193 2.4625 -12.3602
ltibia 24.2754
lfoot 0.270118 -7.15978
ltoes 11.5797
3000
root 4.70098 17.5697 20.628 701.923 -459.929 20.9973
lowerback 6.47076 2.01771 3.86197
upperback 2.89651 2.81727 2.91739
thorax -0.593788 1.36586 0.647516
lowerneck -12.0379 -2.51442 -10.4334
upperneck 38.2418 -5.42689 6.72163
head 16.1122 -3.49551 3.71784
rclavicle -2.89232e-014 -7.95139e-016
rhumerus -29.9434 -10.2326 -78.5966
rradius 26.0827
rwrist -6.05246
rhand -19.8619 13.4619
rfingers 7.12502
rthumb 6.47317 -16.4192
lclavicle -2.89232e-014 -7.95139e-016
lhumerus -36.566 14.5074 82.544
lradius 25.1377
lwrist -5.48441
lhand -12.3096 19.1453
lfingers 7.12502
lthumb 13.7587 48.6704
rfemur 16.4251 -2.16285 23.0691
rtibia 16.3413
rfoot -8.7495 -14.5407
rtoes -19.6649
lfemur -26.4701 2.29673 -12.279
ltibia 24.049
lfoot 1.4952 -7.75898
ltoes 15.6636
3001
root 4.55001 17.5972 20.6584 700.048 -460.001 22.9742
lowerback 6.1593 2.07666 4.38091
upperback 2.89344 2.90341 2.95227
thorax -0.396726 1.41464 0.402071
lowerneck -12.0099 -2.57384 -10.2931
upperneck 38.1479 -5.49952 6.61833
head 16.0569 -3.51236 3.63172
rclavicle 2.28602e-015 -6.36111e-015
rhumerus -30.1356 -10.5133 -78.3992
rradius 26.3484
rwrist -6.41299
rhand -19.9097 13.2386
rfingers 7.12502
rthumb 6.42698 -16.6439
lclavicle 2.28602e-015 -6.36111e-015
lhumerus -36.4064 15.3613 82.1974
lradius 24.9771
lwrist -6.37578
lhand -12.5635 19.3239
lfingers 7.12502
lthumb 13.5139 48.8654
rfemur 15.4593 -2.39302 23.2104
rtibia 18.7158
rfoot -8.26315 -14.107
rtoes -18.7032
lfemur -26.0345 2.90871 -12.2329
ltibia 23.9012
lfoot 2.51171 -8.44062
ltoes 17.8498
3002
root 4.40091 17.6408 20.6889 699.814 -460.076 23.3689
lowerback 5.7869 2.15249 4.59744
upperback 2.85184 2.99589 2.90661
thorax -0.2162 1.46716 0.243984
lowerneck -11.8704 -2.58704 -9.97835
upperneck 37.995 -5.50684 6.38044
head 15.9229 -3.49531 3.465
rclavicle 2.76311e-014 -3.97569e-015
rhumerus -30.4554 -10.6892 -78.2812
rradius 26.772
rwrist -7.15807
rhand -19.9385 13.2064
rfingers 7.12502
rthumb 6.39915 -16.6769
lclavicle 2.76311e-014 -3.97569e-015
lhumerus -36.2698 15.9292 81.9449
lradius 24.8711
lwrist -7.06529
lhand -13.0634 19.344
lfingers 7.12502
lthumb 13.0321 48.9169
rfemur 14.3245 -2.5304 23.0703
rtibia 21.0873
rfoot -7.76513 -13.6197
rtoes -15.7687
lfemur -25.6615 4.07938 -12.612
ltibia 23.747
lfoot 2.87258 -9.12697
ltoes 16.6702
3003
root 4.25267 17.6684 20.7259 701.501 -460.059 21.6192
lowerback 5.64363 2.21567 4.34935
upperback 2.81948 3.06469 2.85637
thorax -0.179353 1.50225 0.331285
lowerneck -11.772 -2.62493 -9.89744
upperneck 38.0181 -5.53599 6.19617
head 15.9048 -3.52367 3.36486
rclavicle -1.92821e-014 -2.3059e-014
rhumerus -30.84 -10.8546 -77.9361
rradius 27.1392
rwrist -7.62611
rhand -19.9057 13.0679
rfingers 7.12502
rthumb 6.43084 -16.8144
lclavicle -1.92821e-014 -2.3059e-014
lhumerus -36.2449 15.2264 82.4469
lradius 25.1744
lwrist -6.13823
lhand -12.852 19.291
lfingers 7.12502
lthumb 13.2359 48.8508
rfemur 13.3947 -2.69836 22.4041
rtibia 23.5991
rfoot -6.85252 -13.0441
rtoes -13.3159
lfemur -25.0324 5.016 -13.386
ltibia 23.5607
lfoot 2.82169 -9.86526
ltoes 15.3352
3004
root 4.10867 17.6913 20.7662 703.16 -459.948 19.7688
lowerback 5.74164 2.21815 4.10749
upperback 2.75378 3.06976 2.80585
thorax -0.31246 1.50241 0.407171
lowerneck -11.7155 -2.63679 -10.071
upperneck 38.208 -5.57887 6.26173
head 16.0043 -3.57182 3.42201
rclavicle 2.88238e-015 4.77083e-015
rhumerus -31.0571 -10.7664 -77.6075
rradius 27.2149
rwrist -7.86714
rhand -19.7703 12.9557
rfingers 7.12502
rthumb 6.5616 -16.9226
lclavicle 2.88238e-015 4.77083e-015
lhumerus -36.2671 14.5911 82.9237
lradius 25.4068
lwrist -5.25142
lhand -12.2781 19.2948
lfingers 7.12502
lthumb 13.789 48.8178
rfemur 12.521 -3.02136 21.6366
rtibia 26.1561
rfoot -5.84015 -12.4635
rtoes -11.8203
lfemur -24.3162 5.31413 -14.0999
ltibia 23.4629
lfoot 3.00365 -10.6001
ltoes 17.8277
3005
root 3.97882 17.7219 20.8016 704.383 -459.894 18.3472
lowerback 6.01995 2.20876 3.90297
upperback 2.68432 3.06935 2.76112
thorax -0.547842 1.49815 0.461032
lowerneck -11.7818 -2.56602 -10.2682
upperneck 38.409 -5.51283 6.44317
head 16.1313 -3.56015 3.55405
rclavicle -1.00386e-014 -1.43125e-014
rhumerus -31.1113 -10.6852 -77.4011
rradius 27.2295
rwrist -8.06595
rhand -19.4111 12.9221
rfingers 7.12502
rthumb 6.9083 -16.9451
lclavicle -1.00386e-014 -1.43125e-014
lhumerus -36.3911 13.7191 83.3678
lradius 25.9234
lwrist -4.60492
lhand -12.4373 19.4817
lfingers 7.12502
lthumb 13.6356 49.0151
rfemur 11.5359 -3.29248 21.0596
rtibia 28.7544
rfoot -4.67294 -12.156
rtoes -10.0354
lfemur -23.6301 5.39625 -14.6244
ltibia 23.3971
lfoot 3.16839 -10.9895
ltoes 20.6452
3006
root 3.85678 17.758 20.8195 704.814 -459.961 17.8366
lowerback 6.18946 2.26127 3.68775
upperback 2.65237 3.13924 2.82261
thorax -0.68921 1.52902 0.63124
lowerneck -11.9491 -2.50704 -10.4585
upperneck 38.5549 -5.38482 6.50621
head 16.2431 -3.52846 3.64216
rclavicle -1.76918e-014 3.18055e-015
rhumerus -31.1886 -10.6618 -77.204
rradius 27.5052
rwrist -8.53721
rhand -19.3578 12.772
rfingers 7.12502
rthumb 6.95981 -17.0936
lclavicle -1.76918e-014 3.18055e-015
lhumerus -36.4516 12.3767 84.0584
lradius 26.6675
lwrist -3.42499
lhand -13.1934 19.5876
lfingers 7.12502
lthumb 12.9068 49.1684
rfemur 10.4513 -3.00078 21.0171
rtibia 31.3837
rfoot -3.92683 -12.5843
rtoes -5.82272
lfemur -23.0355 5.74252 -14.9056
ltibia 23.274
lfoot 2.80136 -11.0809
ltoes 19.8577
